<svg id="Layer_1" data-name="Layer 1" xmlns="http://www.w3.org/2000/svg" viewBox="0 0 562 491"><defs><style>.cls-1,.cls-3{fill:#087a65;}.cls-2{fill:#0eb79a;}.cls-2,.cls-3,.cls-4{fill-rule:evenodd;}.cls-4,.cls-5{fill:#fff;}</style></defs><path class="cls-1" d="M66.38,175.47a270.42,270.42,0,0,0-42.54,3.43l-9,1.47L14,189.46c-.8,8.53-1.22,16.86-1.22,24.87,0,126.17,87.63,233,209.89,258.23l-1.37-7.63c-.38-2.08-.75-4.15-1.08-6.22-.43-2.69-.8-5.37-1.13-8-.48-3.54-.85-7-1.14-10.41a262.17,262.17,0,0,1-.61-35.86,241.9,241.9,0,0,1,2.41-24.78c1.13-7.77,2.59-15.5,4.47-23.13a245.28,245.28,0,0,1,9.24-30.34,168,168,0,0,0-16-17.34q-32.85-31.17-86.26-49.37C167.16,262,203.48,278.6,240,310.16c1.13-2.64,2.36-5.23,3.63-7.82,1.74-3.63,3.63-7.21,5.56-10.79.47-.85.94-1.7,1.41-2.5,1.37-2.54,2.83-5,4.34-7.49,3.2-5.37,6.64-10.55,10.22-15.64A262.94,262.94,0,0,0,66.38,175.47Z"/><path class="cls-2" d="M34.77,195l-5.75.47L28.65,201a251,251,0,0,0,71,187.51,260.41,260.41,0,0,0,120.52,70.25c-.43-2.69-.8-5.37-1.13-8-.48-3.54-.85-7-1.14-10.41a262.17,262.17,0,0,1-.61-35.86,241.9,241.9,0,0,1,2.41-24.78c-18.33-20.12-36.33-40.52-53.67-61.24a194.52,194.52,0,0,1-13.33-15.13c24.31,16.68,48.43,34.44,71.47,53.24a245.28,245.28,0,0,1,9.24-30.34,168,168,0,0,0-16-17.34q-32.85-31.17-86.26-49.37C167.16,262,203.48,278.6,240,310.16c1.13-2.64,2.36-5.23,3.63-7.82,1.74-3.63,3.63-7.21,5.56-10.79.47-.85.94-1.7,1.41-2.5,1.37-2.54,2.83-5,4.34-7.49C200,221.49,116.7,186.49,34.77,195Z"/><path class="cls-3" d="M240,310.16c-2.4,5.28-4.57,10.6-6.54,16a168,168,0,0,0-16-17.34q-32.85-31.17-86.26-49.37C167.16,262,203.48,278.6,240,310.16Z"/><path class="cls-3" d="M250.59,289.05c-.47.8-.94,1.65-1.41,2.5-1.93,3.58-3.82,7.16-5.56,10.79q-59.07-68.68-204.51-93.47c-.33-.05-.66-.14-1-.19l-.9-.14c.19-.85.43-1.74.62-2.64a.78.78,0,0,0,.33-.05h.28C117,198.27,197.4,231.34,250.59,289.05Z"/><path class="cls-4" d="M219.08,450.7c-106.2-30.58-182.94-128.9-181-242a26.77,26.77,0,0,1,0-2.83,9.93,9.93,0,0,1,0-1.22c.09.42.18.85.28,1.22a29.51,29.51,0,0,0,.71,3q39,172.92,174.83,216.48c-60.54-33.73-94.74-67.7-102.42-102.7q40.7,58.58,105.81,81.78a262.17,262.17,0,0,0,.61,35.86C218.23,443.68,218.6,447.16,219.08,450.7Z"/><path class="cls-5" d="M398.91,143.83a11.79,11.79,0,0,1-11.72-10.68,111.08,111.08,0,0,0-221.16,0A11.78,11.78,0,0,1,142.58,131a134.63,134.63,0,0,1,268.07,0A11.78,11.78,0,0,1,400,143.78,10.31,10.31,0,0,1,398.91,143.83Z"/><path class="cls-1" d="M539.24,189.45l-.85-9.06-9-1.46a266.17,266.17,0,0,0-42.55-3.46A263.86,263.86,0,0,0,223,439.3c0,8,.41,16.37,1.2,24.87l.85,9.07,9,1.46a263.36,263.36,0,0,0,85.1,0c128.22-20.81,221.28-130.3,221.28-260.37C540.44,206.33,540,198,539.24,189.45Z"/><path class="cls-2" d="M400.49,303.26c-55.74,38.13-110,82.39-154,130.66l-14,16.21,1.66-20.69c1.92-23.52,6.71-46.82,14.83-68.11C288.59,255.07,404.85,183.21,518.48,195l5.74.49.35,5.46a251.09,251.09,0,0,1-71,187.52c-49,50.4-115.69,78.22-185.88,79.16l-16.85.3L263,455.84c41.89-45,84.71-90.21,124.2-137.42a197.41,197.41,0,0,0,13.32-15.16Z"/><path class="cls-3" d="M422,259.45c-71.27,24.27-114.87,66-132,124.51h0a541.79,541.79,0,0,0-50.19,49.71,221.75,221.75,0,0,1,14.36-66.15C292.45,263.42,405.78,195,515.43,205.92l.63,2.63c-119.22,20-195.61,62.09-228.33,126.11,45.06-47.6,89.95-72.08,134.3-75.21Z"/><path class="cls-4" d="M310.73,411.82q82.68-19.6,131-89.19c-7.67,35-41.87,69-102.42,102.71,91.69-29.13,150.22-103,175.84-220.69C519.74,342.86,406.71,460.1,265,460.48c16.64-16.85,31.52-33.31,45.71-48.66Z"/></svg>